<mxfile host="app.diagrams.net" modified="2024-03-20T15:18:56.870Z" agent="Mozilla/5.0 (Windows NT 10.0; Win64; x64) AppleWebKit/537.36 (KHTML, like Gecko) Chrome/121.0.0.0 Safari/537.36 Edg/121.0.0.0" version="24.0.7" etag="6_-_XUd5Ui4Pf0SVG3U-" type="github">
  <diagram name="Page-1" id="wAljdkdYFPhO22b_x_UP">
    <mxGraphModel>
      <root>
        <mxCell id="0" />
        <mxCell id="1" parent="0" />
      </root>
    </mxGraphModel>
  </diagram>
</mxfile>
